<svg xmlns="http://www.w3.org/2000/svg" style="display:none">
  <symbol id="icon-undo" viewBox="0 0 24 24">
    <path d="M5.04,13.73v-1.69c0-.55.06-1.09.16-1.61s.26-1.02.47-1.5.45-.93.74-1.36.61-.82.98-1.18.76-.69,1.18-.98.88-.54,1.36-.74.98-.36,1.5-.47,1.06-.16,1.61-.16,1.09.06,1.61.16,1.02.26,1.5.47.93.45,1.36.74.82.61,1.18.98.69.76.98,1.18.54.88.74,1.36.36.98.47,1.5.16,1.06.16,1.61-.06,1.09-.16,1.61-.26,1.02-.47,1.5-.45.93-.74,1.36-.61.82-.98,1.18-.76.69-1.18.98-.88.54-1.36.74-.98.36-1.5.47-1.06.16-1.61.16"/>
    <path d="M2.54,10.69l2.06,3.57c.2.34.69.34.88,0l2.06-3.57"/>
  </symbol>
</svg>