<svg xmlns="http://www.w3.org/2000/svg" style="display:none">
  <symbol id="icon-restart" viewBox="0 0 24 24">
    <path d="M12.04,5.04c.55,0,1.09.06,1.61.16s1.02.26,1.5.47.93.45,1.36.74.82.61,1.18.98.69.76.98,1.18.54.88.74,1.36.36.98.47,1.5.16,1.06.16,1.61-.06,1.09-.16,1.61-.26,1.02-.47,1.5-.45.93-.74,1.36-.61.82-.98,1.18-.76.69-1.18.98-.88.54-1.36.74-.98.36-1.5.47-1.06.16-1.61.16-1.09-.06-1.61-.16-1.02-.26-1.5-.47-.93-.45-1.36-.74-.82-.61-1.18-.98-.69-.76-.98-1.18-.54-.88-.74-1.36-.36-.98-.47-1.5-.16-1.06-.16-1.61.06-1.09.16-1.61.26-1.02.47-1.5"/>
    <path d="M7.31,5.52l3.89,2.25c.37.21.83-.05.83-.48V2.79c0-.43-.46-.7-.83-.48l-3.89,2.25c-.37.21-.37.75,0,.96Z" fill="currentColor" stroke="none"/>
  </symbol>
</svg>