<svg xmlns="http://www.w3.org/2000/svg" style="display:none">
  <symbol id="icon-paste-seed" viewBox="0 0 17 22.25">
    <path d="M5.5,17.75h-2.23c-1.53,0-2.77-1.24-2.77-2.77V4.52C.5,2.99,1.74,1.75,3.27,1.75h.48v-.46c0-.44.31-.79.7-.79h4.11c.38,0,.7.35.7.79v.46h.48c1.53,0,2.77,1.24,2.77,2.77v2.23M3.75,1.75v.46c0,.44.31.79.7.79h4.11c.38,0,.7-.35.7-.79v-.46M7.87,6.75h5.27c1.31,0,2.37,1.06,2.37,2.37v9.27c0,1.31-1.06,2.37-2.37,2.37h-5.27c-1.31,0-2.37-1.06-2.37-2.37v-9.27c0-1.31,1.06-2.37,2.37-2.37Z"/>
    <line x1="9" y1="17.25" x2="12" y2="17.25"/>
    <line x1="9" y1="13.75" x2="12" y2="13.75"/>
    <line x1="9" y1="10.25" x2="12" y2="10.25"/>
  </symbol>
</svg>
